<svg width="1920" height="770" viewBox="0 0 1920 770" fill="none" xmlns="http://www.w3.org/2000/svg">
<rect width="1920" height="770" fill="url(#paint0_linear_893_402)" fill-opacity="0.05"/>
<g opacity="0.1" clip-path="url(#clip0_893_402)">
<path d="M713.5 35.9165C762.293 35.9165 768.381 36.0961 787.524 36.994C806.65 37.8919 819.67 40.891 831.127 45.3446C842.98 49.906 852.965 56.0837 862.949 66.0506C872.081 75.0279 879.147 85.8872 883.655 97.8728C888.091 109.312 891.108 122.35 892.006 141.476C892.85 160.619 893.083 166.707 893.083 215.5C893.083 264.293 892.904 270.381 892.006 289.524C891.108 308.65 888.091 321.669 883.655 333.127C879.16 345.119 872.092 355.981 862.949 364.949C853.969 374.078 843.111 381.143 831.127 385.655C819.688 390.091 806.65 393.108 787.524 394.006C768.381 394.85 762.293 395.083 713.5 395.083C664.707 395.083 658.619 394.904 639.476 394.006C620.35 393.108 607.33 390.091 595.873 385.655C583.883 381.156 573.022 374.089 564.051 364.949C554.917 355.973 547.851 345.114 543.345 333.127C538.891 321.687 535.892 308.65 534.994 289.524C534.15 270.381 533.917 264.293 533.917 215.5C533.917 166.707 534.096 160.619 534.994 141.476C535.892 122.332 538.891 109.33 543.345 97.8728C547.839 85.8798 554.907 75.0176 564.051 66.0506C573.024 56.9139 583.885 49.8473 595.873 45.3446C607.33 40.891 620.332 37.8919 639.476 36.994C658.619 36.15 664.707 35.9165 713.5 35.9165ZM713.5 125.708C689.686 125.708 666.847 135.168 650.008 152.008C633.169 168.847 623.708 191.686 623.708 215.5C623.708 239.314 633.169 262.153 650.008 278.992C666.847 295.831 689.686 305.292 713.5 305.292C737.314 305.292 760.153 295.831 776.992 278.992C793.832 262.153 803.292 239.314 803.292 215.5C803.292 191.686 793.832 168.847 776.992 152.008C760.153 135.168 737.314 125.708 713.5 125.708ZM830.229 121.219C830.229 115.265 827.864 109.555 823.654 105.346C819.445 101.136 813.735 98.7707 807.781 98.7707C801.828 98.7707 796.118 101.136 791.908 105.346C787.698 109.555 785.333 115.265 785.333 121.219C785.333 127.172 787.698 132.882 791.908 137.092C796.118 141.301 801.828 143.667 807.781 143.667C813.735 143.667 819.445 141.301 823.654 137.092C827.864 132.882 830.229 127.172 830.229 121.219ZM713.5 161.625C727.789 161.625 741.492 167.301 751.595 177.404C761.699 187.508 767.375 201.211 767.375 215.5C767.375 229.788 761.699 243.492 751.595 253.595C741.492 263.699 727.789 269.375 713.5 269.375C699.212 269.375 685.508 263.699 675.405 253.595C665.301 243.492 659.625 229.788 659.625 215.5C659.625 201.211 665.301 187.508 675.405 177.404C685.508 167.301 699.212 161.625 713.5 161.625Z" fill="#FC5252"/>
</g>
<defs>
<linearGradient id="paint0_linear_893_402" x1="960" y1="0" x2="960" y2="770" gradientUnits="userSpaceOnUse">
<stop stop-color="#FC5252"/>
<stop offset="1" stop-color="#FC5252" stop-opacity="0"/>
</linearGradient>
<clipPath id="clip0_893_402">
<rect width="431" height="431" fill="white" transform="translate(498)"/>
</clipPath>
</defs>
</svg>
